<svg xmlns="http://www.w3.org/2000/svg" width="79" height="74" viewBox="0 0 79 74" fill="none">
  <g filter="url(#filter0_d_146_134)">
    <path d="M39.5 66C59.1061 66 75 51.2254 75 33C75 14.7746 59.1061 0 39.5 0C19.8939 0 4 14.7746 4 33C4 51.2254 19.8939 66 39.5 66Z" fill="#FFF5E1"/>
    <path d="M74.5 33C74.5 50.9155 58.865 65.5 39.5 65.5C20.135 65.5 4.5 50.9155 4.5 33C4.5 15.0845 20.135 0.5 39.5 0.5C58.865 0.5 74.5 15.0845 74.5 33Z" stroke="#FFD700"/>
  </g>
  <path d="M52.9486 42.8385L59.5214 17.0531H66.7122V13H56.3794L54.8299 19.0785L13 19.0485L17.4471 42.8383L52.9486 42.8385ZM53.797 23.1309L49.8065 38.7854H20.8052L17.874 23.1051L53.797 23.1309Z" fill="#568203"/>
  <path d="M52.9486 42.8385L59.5214 17.0531H66.7122V13H56.3794L54.8299 19.0785L13 19.0485L17.4471 42.8383L52.9486 42.8385ZM53.797 23.1309L49.8065 38.7854H20.8052L17.874 23.1051L53.797 23.1309Z" fill="black" fill-opacity="0.2"/>
  <path d="M47.4108 57.6092C50.9779 57.6092 53.88 54.7015 53.88 51.1276C53.88 47.5537 50.9779 44.6461 47.4108 44.6461H23.0372C19.47 44.6461 16.5679 47.5537 16.5679 51.1276C16.5679 54.7015 19.47 57.6092 23.0372 57.6092C26.6044 57.6092 29.5064 54.7015 29.5064 51.1276C29.5064 50.2693 29.3386 49.4496 29.0348 48.6992H41.4131C41.1093 49.4496 40.9415 50.2693 40.9415 51.1276C40.9415 54.7015 43.8436 57.6092 47.4108 57.6092ZM25.461 51.1276C25.461 52.4667 24.3737 53.5561 23.0372 53.5561C21.7006 53.5561 20.6133 52.4667 20.6133 51.1276C20.6133 49.7886 21.7006 48.6992 23.0372 48.6992C24.3737 48.6992 25.461 49.7886 25.461 51.1276ZM49.8347 51.1276C49.8347 52.4667 48.7474 53.5561 47.4108 53.5561C46.0743 53.5561 44.987 52.4667 44.987 51.1276C44.987 49.7886 46.0743 48.6992 47.4108 48.6992C48.7474 48.6992 49.8347 49.7886 49.8347 51.1276Z" fill="#568203"/>
  <path d="M47.4108 57.6092C50.9779 57.6092 53.88 54.7015 53.88 51.1276C53.88 47.5537 50.9779 44.6461 47.4108 44.6461H23.0372C19.47 44.6461 16.5679 47.5537 16.5679 51.1276C16.5679 54.7015 19.47 57.6092 23.0372 57.6092C26.6044 57.6092 29.5064 54.7015 29.5064 51.1276C29.5064 50.2693 29.3386 49.4496 29.0348 48.6992H41.4131C41.1093 49.4496 40.9415 50.2693 40.9415 51.1276C40.9415 54.7015 43.8436 57.6092 47.4108 57.6092ZM25.461 51.1276C25.461 52.4667 24.3737 53.5561 23.0372 53.5561C21.7006 53.5561 20.6133 52.4667 20.6133 51.1276C20.6133 49.7886 21.7006 48.6992 23.0372 48.6992C24.3737 48.6992 25.461 49.7886 25.461 51.1276ZM49.8347 51.1276C49.8347 52.4667 48.7474 53.5561 47.4108 53.5561C46.0743 53.5561 44.987 52.4667 44.987 51.1276C44.987 49.7886 46.0743 48.6992 47.4108 48.6992C48.7474 48.6992 49.8347 49.7886 49.8347 51.1276Z" fill="black" fill-opacity="0.2"/>
  <defs>
    <filter id="filter0_d_146_134" x="0" y="0" width="79" height="74" filterUnits="userSpaceOnUse" color-interpolation-filters="sRGB">
      <feFlood flood-opacity="0" result="BackgroundImageFix"/>
      <feColorMatrix in="SourceAlpha" type="matrix" values="0 0 0 0 0 0 0 0 0 0 0 0 0 0 0 0 0 0 127 0" result="hardAlpha"/>
      <feOffset dy="4"/>
      <feGaussianBlur stdDeviation="2"/>
      <feComposite in2="hardAlpha" operator="out"/>
      <feColorMatrix type="matrix" values="0 0 0 0 0 0 0 0 0 0 0 0 0 0 0 0 0 0 0.25 0"/>
      <feBlend mode="normal" in2="BackgroundImageFix" result="effect1_dropShadow_146_134"/>
      <feBlend mode="normal" in="SourceGraphic" in2="effect1_dropShadow_146_134" result="shape"/>
    </filter>
  </defs>
</svg>